<?xml version="1.0" encoding="utf-8"?>
<svg viewBox="0.684 0.569 498.632 498.631" xmlns="http://www.w3.org/2000/svg">
  <path d="M 395.434 0.569 L 104.566 0.569 C 47.202 0.569 0.684 47.087 0.684 104.45 L 0.684 395.319 C 0.684 452.681 47.202 499.2 104.566 499.2 L 395.434 499.2 C 452.818 499.2 499.316 452.681 499.316 395.319 L 499.316 104.45 C 499.316 47.087 452.818 0.569 395.434 0.569 Z M 166.895 395.319 L 104.566 395.319 L 104.566 166.779 L 166.895 166.779 L 166.895 395.319 Z M 135.73 140.436 C 115.661 140.436 99.371 124.022 99.371 103.786 C 99.371 83.549 115.661 67.136 135.73 67.136 C 155.8 67.136 172.089 83.549 172.089 103.786 C 172.089 124.022 155.821 140.436 135.73 140.436 Z M 416.21 395.319 L 353.882 395.319 L 353.882 278.887 C 353.882 208.913 270.776 214.212 270.776 278.887 L 270.776 395.319 L 208.447 395.319 L 208.447 166.779 L 270.776 166.779 L 270.776 203.449 C 299.781 149.723 416.21 145.754 416.21 254.891 L 416.21 395.319 Z" style="fill: rgb(10, 102, 194);"/>
</svg>