<svg id="visual" viewBox="0 0 1920 300" width="1920" height="300" xmlns="http://www.w3.org/2000/svg" xmlns:xlink="http://www.w3.org/1999/xlink" version="1.1"><rect x="0" y="0" width="1920" height="300" fill="#242A2E"></rect><path d="M0 148L32 153C64 158 128 168 192 172.7C256 177.3 320 176.7 384 170.2C448 163.7 512 151.3 576 145.7C640 140 704 141 768 139.3C832 137.7 896 133.3 960 139.5C1024 145.7 1088 162.3 1152 162.8C1216 163.3 1280 147.7 1344 142.7C1408 137.7 1472 143.3 1536 143.2C1600 143 1664 137 1728 139.2C1792 141.3 1856 151.7 1888 156.8L1920 162L1920 0L1888 0C1856 0 1792 0 1728 0C1664 0 1600 0 1536 0C1472 0 1408 0 1344 0C1280 0 1216 0 1152 0C1088 0 1024 0 960 0C896 0 832 0 768 0C704 0 640 0 576 0C512 0 448 0 384 0C320 0 256 0 192 0C128 0 64 0 32 0L0 0Z" fill="#3b9992"></path><path d="M0 113L32 109.8C64 106.7 128 100.3 192 98C256 95.7 320 97.3 384 98.8C448 100.3 512 101.7 576 105.7C640 109.7 704 116.3 768 120.5C832 124.7 896 126.3 960 122.5C1024 118.7 1088 109.3 1152 104.7C1216 100 1280 100 1344 105.5C1408 111 1472 122 1536 128C1600 134 1664 135 1728 134C1792 133 1856 130 1888 128.5L1920 127L1920 0L1888 0C1856 0 1792 0 1728 0C1664 0 1600 0 1536 0C1472 0 1408 0 1344 0C1280 0 1216 0 1152 0C1088 0 1024 0 960 0C896 0 832 0 768 0C704 0 640 0 576 0C512 0 448 0 384 0C320 0 256 0 192 0C128 0 64 0 32 0L0 0Z" fill="#38918a"></path><path d="M0 56L32 61.3C64 66.7 128 77.3 192 81.5C256 85.7 320 83.3 384 81.3C448 79.3 512 77.7 576 80.5C640 83.3 704 90.7 768 89.2C832 87.7 896 77.3 960 70.7C1024 64 1088 61 1152 65.3C1216 69.7 1280 81.3 1344 84C1408 86.7 1472 80.3 1536 78.7C1600 77 1664 80 1728 77.5C1792 75 1856 67 1888 63L1920 59L1920 0L1888 0C1856 0 1792 0 1728 0C1664 0 1600 0 1536 0C1472 0 1408 0 1344 0C1280 0 1216 0 1152 0C1088 0 1024 0 960 0C896 0 832 0 768 0C704 0 640 0 576 0C512 0 448 0 384 0C320 0 256 0 192 0C128 0 64 0 32 0L0 0Z" fill="#358982"></path><path d="M0 23L32 26.8C64 30.7 128 38.3 192 44.5C256 50.7 320 55.3 384 56.2C448 57 512 54 576 52.3C640 50.7 704 50.3 768 46.8C832 43.3 896 36.7 960 36C1024 35.3 1088 40.7 1152 42.2C1216 43.7 1280 41.3 1344 41C1408 40.7 1472 42.3 1536 44.5C1600 46.7 1664 49.3 1728 51C1792 52.7 1856 53.3 1888 53.7L1920 54L1920 0L1888 0C1856 0 1792 0 1728 0C1664 0 1600 0 1536 0C1472 0 1408 0 1344 0C1280 0 1216 0 1152 0C1088 0 1024 0 960 0C896 0 832 0 768 0C704 0 640 0 576 0C512 0 448 0 384 0C320 0 256 0 192 0C128 0 64 0 32 0L0 0Z" fill="#32817b"></path></svg>