<svg id="visual" viewBox="0 0 1920 300" width="1920" height="300" xmlns="http://www.w3.org/2000/svg" xmlns:xlink="http://www.w3.org/1999/xlink" version="1.1"><rect x="0" y="0" width="1920" height="300" fill="#242A2E"></rect><path d="M0 57L32 58C64 59 128 61 192 64.2C256 67.3 320 71.7 384 76.3C448 81 512 86 576 80.8C640 75.7 704 60.3 768 62.7C832 65 896 85 960 94.2C1024 103.3 1088 101.7 1152 93.2C1216 84.7 1280 69.3 1344 62.5C1408 55.7 1472 57.3 1536 67.5C1600 77.7 1664 96.3 1728 100.8C1792 105.3 1856 95.7 1888 90.8L1920 86L1920 301L1888 301C1856 301 1792 301 1728 301C1664 301 1600 301 1536 301C1472 301 1408 301 1344 301C1280 301 1216 301 1152 301C1088 301 1024 301 960 301C896 301 832 301 768 301C704 301 640 301 576 301C512 301 448 301 384 301C320 301 256 301 192 301C128 301 64 301 32 301L0 301Z" fill="#3b9992"></path><path d="M0 125L32 120C64 115 128 105 192 101.5C256 98 320 101 384 99.5C448 98 512 92 576 98.5C640 105 704 124 768 133.5C832 143 896 143 960 142.8C1024 142.7 1088 142.3 1152 137.5C1216 132.7 1280 123.3 1344 125C1408 126.7 1472 139.3 1536 138.7C1600 138 1664 124 1728 115.7C1792 107.3 1856 104.7 1888 103.3L1920 102L1920 301L1888 301C1856 301 1792 301 1728 301C1664 301 1600 301 1536 301C1472 301 1408 301 1344 301C1280 301 1216 301 1152 301C1088 301 1024 301 960 301C896 301 832 301 768 301C704 301 640 301 576 301C512 301 448 301 384 301C320 301 256 301 192 301C128 301 64 301 32 301L0 301Z" fill="#38938c"></path><path d="M0 176L32 169.8C64 163.7 128 151.3 192 154.7C256 158 320 177 384 182.3C448 187.7 512 179.3 576 177.8C640 176.3 704 181.7 768 180.5C832 179.3 896 171.7 960 168C1024 164.3 1088 164.7 1152 162.7C1216 160.7 1280 156.3 1344 155.7C1408 155 1472 158 1536 163.5C1600 169 1664 177 1728 173.8C1792 170.7 1856 156.3 1888 149.2L1920 142L1920 301L1888 301C1856 301 1792 301 1728 301C1664 301 1600 301 1536 301C1472 301 1408 301 1344 301C1280 301 1216 301 1152 301C1088 301 1024 301 960 301C896 301 832 301 768 301C704 301 640 301 576 301C512 301 448 301 384 301C320 301 256 301 192 301C128 301 64 301 32 301L0 301Z" fill="#368d86"></path><path d="M0 235L32 226.2C64 217.3 128 199.7 192 192C256 184.3 320 186.7 384 187.7C448 188.7 512 188.3 576 194.3C640 200.3 704 212.7 768 216.3C832 220 896 215 960 207.3C1024 199.7 1088 189.3 1152 190.7C1216 192 1280 205 1344 210.7C1408 216.3 1472 214.7 1536 212.7C1600 210.7 1664 208.3 1728 205.3C1792 202.3 1856 198.7 1888 196.8L1920 195L1920 301L1888 301C1856 301 1792 301 1728 301C1664 301 1600 301 1536 301C1472 301 1408 301 1344 301C1280 301 1216 301 1152 301C1088 301 1024 301 960 301C896 301 832 301 768 301C704 301 640 301 576 301C512 301 448 301 384 301C320 301 256 301 192 301C128 301 64 301 32 301L0 301Z" fill="#348780"></path><path d="M0 242L32 241C64 240 128 238 192 240C256 242 320 248 384 253.3C448 258.7 512 263.3 576 259.5C640 255.7 704 243.3 768 236.7C832 230 896 229 960 232.2C1024 235.3 1088 242.7 1152 243.2C1216 243.7 1280 237.3 1344 235.3C1408 233.3 1472 235.7 1536 238.5C1600 241.3 1664 244.7 1728 248.8C1792 253 1856 258 1888 260.5L1920 263L1920 301L1888 301C1856 301 1792 301 1728 301C1664 301 1600 301 1536 301C1472 301 1408 301 1344 301C1280 301 1216 301 1152 301C1088 301 1024 301 960 301C896 301 832 301 768 301C704 301 640 301 576 301C512 301 448 301 384 301C320 301 256 301 192 301C128 301 64 301 32 301L0 301Z" fill="#32817b"></path></svg>