<svg id="visual" viewBox="0 0 1200 250" width="1200" height="250" xmlns="http://www.w3.org/2000/svg" xmlns:xlink="http://www.w3.org/1999/xlink" version="1.1"><rect x="0" y="0" width="1200" height="250" fill="#242A2E"></rect><path d="M0 203L25 195C50 187 100 171 150 171.8C200 172.7 250 190.3 300 199.7C350 209 400 210 450 205.5C500 201 550 191 600 184.5C650 178 700 175 750 173.2C800 171.3 850 170.7 900 175.5C950 180.3 1000 190.7 1050 196.2C1100 201.7 1150 202.3 1175 202.7L1200 203L1200 0L1175 0C1150 0 1100 0 1050 0C1000 0 950 0 900 0C850 0 800 0 750 0C700 0 650 0 600 0C550 0 500 0 450 0C400 0 350 0 300 0C250 0 200 0 150 0C100 0 50 0 25 0L0 0Z" fill="#39938d"></path><path d="M0 118L25 119.7C50 121.3 100 124.7 150 127.3C200 130 250 132 300 138.5C350 145 400 156 450 156.3C500 156.7 550 146.3 600 139.3C650 132.3 700 128.7 750 133.7C800 138.7 850 152.3 900 151.5C950 150.7 1000 135.3 1050 130C1100 124.7 1150 129.3 1175 131.7L1200 134L1200 0L1175 0C1150 0 1100 0 1050 0C1000 0 950 0 900 0C850 0 800 0 750 0C700 0 650 0 600 0C550 0 500 0 450 0C400 0 350 0 300 0C250 0 200 0 150 0C100 0 50 0 25 0L0 0Z" fill="#378e88"></path><path d="M0 129L25 128.2C50 127.3 100 125.7 150 121.3C200 117 250 110 300 106.5C350 103 400 103 450 103.8C500 104.7 550 106.3 600 111.7C650 117 700 126 750 130.2C800 134.3 850 133.7 900 129.7C950 125.7 1000 118.3 1050 111.7C1100 105 1150 99 1175 96L1200 93L1200 0L1175 0C1150 0 1100 0 1050 0C1000 0 950 0 900 0C850 0 800 0 750 0C700 0 650 0 600 0C550 0 500 0 450 0C400 0 350 0 300 0C250 0 200 0 150 0C100 0 50 0 25 0L0 0Z" fill="#358a84"></path><path d="M0 73L25 70.8C50 68.7 100 64.3 150 67.8C200 71.3 250 82.7 300 84C350 85.3 400 76.7 450 70C500 63.3 550 58.7 600 58.5C650 58.3 700 62.7 750 64.5C800 66.3 850 65.7 900 70.7C950 75.7 1000 86.3 1050 88.3C1100 90.3 1150 83.7 1175 80.3L1200 77L1200 0L1175 0C1150 0 1100 0 1050 0C1000 0 950 0 900 0C850 0 800 0 750 0C700 0 650 0 600 0C550 0 500 0 450 0C400 0 350 0 300 0C250 0 200 0 150 0C100 0 50 0 25 0L0 0Z" fill="#34857f"></path><path d="M0 46L25 46.5C50 47 100 48 150 49.7C200 51.3 250 53.7 300 49.7C350 45.7 400 35.3 450 29.7C500 24 550 23 600 24.2C650 25.3 700 28.7 750 33.8C800 39 850 46 900 46.2C950 46.3 1000 39.7 1050 41C1100 42.3 1150 51.7 1175 56.3L1200 61L1200 0L1175 0C1150 0 1100 0 1050 0C1000 0 950 0 900 0C850 0 800 0 750 0C700 0 650 0 600 0C550 0 500 0 450 0C400 0 350 0 300 0C250 0 200 0 150 0C100 0 50 0 25 0L0 0Z" fill="#32817b"></path></svg>